<?xml version="1.0" encoding="UTF-8"?>
<svg xmlns="http://www.w3.org/2000/svg" xmlns:xlink="http://www.w3.org/1999/xlink" viewBox="0 0 2560 1440">
  <defs>
    <style>
      .cls-1, .cls-2, .cls-3, .cls-4, .cls-5, .cls-6, .cls-7, .cls-8 {
        fill: none;
      }

      .cls-2, .cls-3, .cls-4, .cls-5, .cls-6, .cls-7, .cls-8 {
        stroke-miterlimit: 10;
      }

      .cls-2, .cls-4, .cls-5, .cls-6, .cls-7, .cls-8 {
        stroke-width: 2px;
      }

      .cls-2, .cls-5, .cls-8 {
        stroke: #efefef;
      }

      .cls-9 {
        fill: #fff;
        font-size: 24.56px;
      }

      .cls-9, .cls-10 {
        font-family: Roboto-Regular, Roboto;
      }

      .cls-11 {
        fill: #efefef;
      }

      .cls-3 {
        stroke: #b7b7b7;
        stroke-width: 5px;
      }

      .cls-12 {
        fill: #1c1f24;
      }

      .cls-13 {
        letter-spacing: 0em;
      }

      .cls-14 {
        fill: #b7b7b7;
      }

      .cls-4 {
        stroke: #00c909;
      }

      .cls-5 {
        stroke-dasharray: 12.17 12.17;
      }

      .cls-6 {
        stroke: #00c3ff;
      }

      .cls-7 {
        stroke: #fa0;
      }

      .cls-15 {
        letter-spacing: -.01em;
      }

      .cls-16 {
        letter-spacing: -.02em;
      }

      .cls-17 {
        letter-spacing: -.01em;
      }

      .cls-18 {
        letter-spacing: 0em;
      }

      .cls-19 {
        letter-spacing: 0em;
      }

      .cls-8 {
        stroke-dasharray: 12;
      }

      .cls-20 {
        clip-path: url(#clippath);
      }

      .cls-10 {
        fill: #7c7c7c;
        font-size: 50px;
      }
    </style>
    <clipPath id="clippath">
      <rect class="cls-1" x="728.02" y="168.02" width="1103.95" height="1103.95"/>
    </clipPath>
  </defs>
  <g id="Layer_1" data-name="Layer 1">
    <rect class="cls-12" width="2560" height="1440"/>
  </g>
  <g id="Layer_2" data-name="Layer 2">
    <text class="cls-10" transform="translate(1929.9 1309.72)"><tspan x="0" y="0">VE</tspan><tspan class="cls-15" x="60.25" y="0">C</tspan><tspan class="cls-17" x="92.09" y="0">T</tspan><tspan x="121.24" y="0">OR EMBEDDINGS</tspan></text>
    <g class="cls-20">
      <line class="cls-8" x1="864.08" y1="873.8" x2="864.08" y2="472.9"/>
      <line class="cls-8" x1="1259.6" y1="1111.24" x2="1259.6" y2="772.2"/>
      <line class="cls-8" x1="1318.01" y1="605.18" x2="1318.01" y2="198.59"/>
      <g>
        <line class="cls-2" x1="1712.73" y1="840.65" x2="1712.73" y2="834.65"/>
        <line class="cls-5" x1="1712.73" y1="822.48" x2="1712.73" y2="512.19"/>
        <line class="cls-2" x1="1712.73" y1="506.11" x2="1712.73" y2="500.11"/>
      </g>
      <line class="cls-3" x1="807.79" y1="276.18" x2="807.79" y2="1464.67"/>
      <line class="cls-3" x1="-138.19" y1="1407.73" x2="1499.57" y2="424.81"/>
      <polygon class="cls-14" points="1516.9 450.12 1516.9 416.18 1460.33 416.18 1516.9 450.12"/>
      <line class="cls-6" x1="821.96" y1="375.18" x2="794.66" y2="355.05"/>
      <line class="cls-6" x1="823" y1="356.63" x2="793.62" y2="373.59"/>
      <line class="cls-6" x1="823" y1="441.77" x2="793.62" y2="424.81"/>
      <line class="cls-6" x1="822.86" y1="424.57" x2="793.77" y2="442.02"/>
      <line class="cls-6" x1="822.4" y1="511.12" x2="794.23" y2="492.23"/>
      <line class="cls-6" x1="822.5" y1="492.38" x2="794.13" y2="510.97"/>
      <line class="cls-6" x1="822.4" y1="579" x2="794.23" y2="560.12"/>
      <line class="cls-6" x1="822.86" y1="560.83" x2="793.77" y2="578.29"/>
      <line class="cls-6" x1="823" y1="646.24" x2="793.62" y2="629.28"/>
      <line class="cls-6" x1="822.86" y1="629.03" x2="793.77" y2="646.49"/>
      <line class="cls-6" x1="822.4" y1="714.37" x2="794.23" y2="695.49"/>
      <line class="cls-6" x1="822.86" y1="696.2" x2="793.77" y2="713.66"/>
      <line class="cls-6" x1="823" y1="781.22" x2="793.62" y2="764.26"/>
      <line class="cls-6" x1="822.86" y1="764.02" x2="793.77" y2="781.47"/>
      <line class="cls-6" x1="822.53" y1="917.28" x2="794.1" y2="898.78"/>
      <line class="cls-6" x1="822.53" y1="898.79" x2="794.09" y2="917.28"/>
      <line class="cls-6" x1="822.53" y1="985.17" x2="794.1" y2="966.66"/>
      <line class="cls-6" x1="823" y1="967.43" x2="793.62" y2="984.39"/>
      <line class="cls-6" x1="822.53" y1="1053.05" x2="794.1" y2="1034.54"/>
      <line class="cls-6" x1="822.86" y1="1035.07" x2="793.77" y2="1052.52"/>
      <line class="cls-6" x1="822.53" y1="1120.93" x2="794.1" y2="1102.43"/>
      <line class="cls-6" x1="823" y1="1103.2" x2="793.62" y2="1120.16"/>
      <line class="cls-6" x1="823" y1="1188" x2="793.62" y2="1171.04"/>
      <line class="cls-6" x1="822.52" y1="1170.25" x2="794.11" y2="1188.79"/>
      <line class="cls-6" x1="822.86" y1="1256.17" x2="793.77" y2="1238.72"/>
      <line class="cls-6" x1="822.52" y1="1238.17" x2="794.11" y2="1256.71"/>
      <line class="cls-6" x1="822.86" y1="1324.05" x2="793.77" y2="1306.6"/>
      <line class="cls-6" x1="822.52" y1="1306.05" x2="794.11" y2="1324.59"/>
      <line class="cls-6" x1="823" y1="1391.69" x2="793.62" y2="1374.73"/>
      <line class="cls-6" x1="822.52" y1="1373.94" x2="794.11" y2="1392.48"/>
      <line class="cls-3" x1="-168.45" y1="254.41" x2="1502.07" y2="1256.71"/>
      <polygon class="cls-14" points="1458.23 1264.35 1514.8 1264.35 1514.8 1230.41 1458.23 1264.35"/>
      <line class="cls-4" x1="736.47" y1="865.24" x2="765.96" y2="882.94"/>
      <line class="cls-4" x1="679.91" y1="899.19" x2="709.39" y2="916.88"/>
      <line class="cls-4" x1="623.52" y1="933.21" x2="653.01" y2="950.9"/>
      <line class="cls-4" x1="566.77" y1="967.07" x2="596.26" y2="984.76"/>
      <line class="cls-4" x1="509.55" y1="1001.01" x2="539.04" y2="1018.7"/>
      <line class="cls-4" x1="453.63" y1="1034.95" x2="483.12" y2="1052.64"/>
      <line class="cls-4" x1="397.33" y1="1069.12" x2="426.81" y2="1086.81"/>
      <line class="cls-4" x1="339.9" y1="1102.48" x2="369.39" y2="1120.17"/>
      <line class="cls-4" x1="283.56" y1="1136.47" x2="313.05" y2="1154.16"/>
      <line class="cls-4" x1="227.36" y1="1170.71" x2="256.84" y2="1188.41"/>
      <line class="cls-4" x1="170.38" y1="1204.87" x2="199.87" y2="1222.56"/>
      <line class="cls-4" x1="114.06" y1="1238.5" x2="143.55" y2="1256.19"/>
      <line class="cls-4" x1="56.86" y1="1271.98" x2="86.35" y2="1289.67"/>
      <line class="cls-4" x1=".58" y1="1306.04" x2="30.06" y2="1323.74"/>
      <line class="cls-4" x1="849.51" y1="796.95" x2="878.99" y2="814.64"/>
      <line class="cls-4" x1="906.98" y1="763.9" x2="936.47" y2="781.59"/>
      <line class="cls-4" x1="961.31" y1="729.2" x2="990.8" y2="746.89"/>
      <line class="cls-4" x1="1018.75" y1="695.2" x2="1048.24" y2="712.89"/>
      <line class="cls-4" x1="1076.1" y1="660.87" x2="1105.58" y2="678.56"/>
      <line class="cls-4" x1="1132.02" y1="627.4" x2="1161.51" y2="645.09"/>
      <line class="cls-4" x1="1189.02" y1="593.72" x2="1218.51" y2="611.41"/>
      <line class="cls-4" x1="1245.75" y1="559.4" x2="1275.24" y2="577.09"/>
      <line class="cls-4" x1="1301.81" y1="525.32" x2="1331.3" y2="543.02"/>
      <line class="cls-4" x1="1357.51" y1="491.16" x2="1387" y2="508.85"/>
      <line class="cls-4" x1="1413.43" y1="456.83" x2="1442.91" y2="474.52"/>
      <line class="cls-7" x1="737.16" y1="814.64" x2="766.64" y2="796.95"/>
      <line class="cls-7" x1="850.46" y1="882.64" x2="879.95" y2="864.95"/>
      <line class="cls-7" x1="906.89" y1="916.45" x2="936.38" y2="898.76"/>
      <line class="cls-7" x1="962.05" y1="950.53" x2="991.53" y2="932.84"/>
      <line class="cls-7" x1="1019.93" y1="984.39" x2="1049.42" y2="966.7"/>
      <line class="cls-7" x1="1076.39" y1="1018.38" x2="1105.88" y2="1000.68"/>
      <line class="cls-7" x1="1132.25" y1="1052.62" x2="1161.74" y2="1034.92"/>
      <line class="cls-7" x1="1187.84" y1="1087.29" x2="1217.33" y2="1069.6"/>
      <line class="cls-7" x1="1245.35" y1="1121.15" x2="1274.84" y2="1103.46"/>
      <line class="cls-7" x1="1302.34" y1="1154.46" x2="1331.83" y2="1136.77"/>
      <line class="cls-7" x1="1358.42" y1="1188.24" x2="1387.9" y2="1170.55"/>
      <line class="cls-7" x1="1415.34" y1="1222.32" x2="1444.83" y2="1204.63"/>
      <line class="cls-7" x1="679.16" y1="781.61" x2="708.65" y2="763.92"/>
      <line class="cls-7" x1="623.61" y1="747.01" x2="653.1" y2="729.31"/>
      <line class="cls-7" x1="566.26" y1="713.65" x2="595.74" y2="695.96"/>
      <line class="cls-7" x1="509.69" y1="679.86" x2="539.18" y2="662.17"/>
      <line class="cls-7" x1="452.53" y1="646.83" x2="482.01" y2="629.14"/>
      <line class="cls-7" x1="396.08" y1="611.99" x2="425.57" y2="594.3"/>
      <line class="cls-7" x1="340.35" y1="577.95" x2="369.83" y2="560.26"/>
      <line class="cls-7" x1="284.15" y1="543.99" x2="313.64" y2="526.3"/>
      <line class="cls-7" x1="227.07" y1="510.22" x2="256.56" y2="492.53"/>
      <line class="cls-7" x1="170.79" y1="475.64" x2="200.28" y2="457.95"/>
      <line class="cls-7" x1="114.22" y1="441.7" x2="143.71" y2="424.01"/>
      <line class="cls-7" x1="58.01" y1="407.64" x2="87.5" y2="389.95"/>
      <line class="cls-7" x1="1.27" y1="373.92" x2="30.75" y2="356.23"/>
      <circle class="cls-11" cx="1259.6" cy="976.23" r="6.66"/>
      <text class="cls-9" transform="translate(1279.1 984.52)"><tspan x="0" y="0">Girl</tspan></text>
      <circle class="cls-11" cx="864.63" cy="669.28" r="6.66"/>
      <text class="cls-9" transform="translate(884.13 677.58)"><tspan x="0" y="0">B</tspan><tspan class="cls-19" x="15.3" y="0">o</tspan><tspan x="29.13" y="0">y</tspan></text>
      <circle class="cls-11" cx="864.63" cy="466.24" r="6.66"/>
      <text class="cls-9" transform="translate(884.13 474.53)"><tspan x="0" y="0">Man</tspan></text>
      <circle class="cls-11" cx="1317.96" cy="400.12" r="6.66"/>
      <text class="cls-9" transform="translate(1337.46 408.41)"><tspan x="0" y="0">Prince</tspan></text>
      <circle class="cls-11" cx="1317.96" cy="197.07" r="6.66"/>
      <text class="cls-9" transform="translate(1337.46 205.36)"><tspan x="0" y="0">King</tspan></text>
      <circle class="cls-11" cx="1259.6" cy="772.2" r="6.66"/>
      <text class="cls-9" transform="translate(1279.1 780.49)"><tspan class="cls-16" x="0" y="0">W</tspan><tspan x="21.42" y="0">oman</tspan></text>
      <circle class="cls-11" cx="1712.73" cy="704.13" r="6.66"/>
      <text class="cls-9" transform="translate(1732.23 712.43)"><tspan x="0" y="0">Princess</tspan></text>
      <circle class="cls-11" cx="1712.73" cy="500.11" r="6.66"/>
      <text class="cls-9" transform="translate(1732.23 508.4)"><tspan x="0" y="0">Queen</tspan></text>
      <text class="cls-9" transform="translate(-167.63 633.66)"><tspan x="0" y="0" xml:space="preserve">[      0,         5,         1       ]</tspan><tspan x="0" y="40" xml:space="preserve">[      0,         5,         8       ]</tspan><tspan x="0" y="80" xml:space="preserve">[      0,         2,         1       ]</tspan><tspan x="0" y="120" xml:space="preserve">[      0,         2,         8       ]</tspan><tspan x="0" y="160" xml:space="preserve">[      8,         5,         1       ]</tspan><tspan x="0" y="200" xml:space="preserve">[      8,         5,         8       ]</tspan><tspan x="0" y="240" xml:space="preserve">[      8,         2,         1       ]</tspan><tspan x="0" y="280" xml:space="preserve">[      8,         2,         8       ]</tspan></text>
      <text class="cls-9" transform="translate(-157.9 560.12)"><tspan x="0" y="0">R</tspan><tspan class="cls-18" x="15.13" y="0">oy</tspan><tspan class="cls-13" x="40.4" y="0">alty | Age | Gender</tspan></text>
      <polygon class="cls-14" points="779.5 280.12 807.79 263.15 836.07 280.12 808.29 297.09 779.5 280.12"/>
      <polygon class="cls-12" points="805.29 827.49 805.3 841.1 836.41 860.27 849.51 1516.55 -433.76 1499.61 -433.76 152.79 726.71 215.63 779.5 781.61 805.29 827.49"/>
    </g>
  </g>
</svg>