<?xml version="1.0" encoding="UTF-8"?><svg id="a" xmlns="http://www.w3.org/2000/svg" viewBox="0 0 2880 1800"><defs><style>.aq,.ar{fill:#00c909;}.as{fill:#25aa00;}.at{fill-rule:evenodd;}.at,.au{fill:#fff;}.av{fill:#d3d3d3;font-family:Roboto-Regular, Roboto;}.av,.aw,.ar{font-size:24px;}.ax,.aw{fill:#00c3ff;}.ay{stroke:#00c3ff;}.ay,.az,.ba{stroke-width:5px;}.ay,.az,.ba,.bb{fill:none;stroke-miterlimit:10;}.az{stroke:#b7b7b7;}.bc{fill:#f99f1c;font-family:Roboto-ExtraBold, Roboto;font-size:22.93px;font-weight:700;}.bd{fill:#1c1f24;}.be{fill:#9600ce;}.bf{fill:#b7b7b7;}.bg{letter-spacing:0em;}.bh{fill:#ba0298;}.aw,.ar{font-family:Roboto-SemiBold, Roboto;font-weight:600;}.bi{fill:#29a3b7;}.bj{fill:#f26e3b;}.ba{stroke:#00c909;}.bk{letter-spacing:-.02em;}.bl{fill:#494949;}.bm{letter-spacing:-.02em;}.bn{letter-spacing:-.02em;}.bo{letter-spacing:-.06em;}.bb{stroke:#ffb94a;stroke-width:12px;}.bp{letter-spacing:-.01em;}.bq{letter-spacing:0em;}.br{letter-spacing:0em;}.bs{letter-spacing:-.01em;}.bt{letter-spacing:0em;}.bu{letter-spacing:0em;}.bv{letter-spacing:0em;}</style></defs><rect class="bd" width="2880" height="1800"/><rect class="bb" x="557" y="179.1" width="1879.34" height="1450.16" rx="66.35" ry="66.35"/><rect class="bl" x="2536.1" y="682.66" width="144" height="144" rx="20" ry="20"/><g id="b"><rect id="c" class="bj" x="1166.93" y="898.59" width="144" height="144" rx="20" ry="20"/></g><g id="d"><rect id="e" class="bj" x="1166.84" y="682.42" width="144" height="144" rx="20" ry="20"/></g><path id="f" class="at" d="M1221.9,791.14h-17.53l19.39-40.53,8.79,18.09-10.65,22.44ZM1225.03,746.73c-.24-.49-.73-.8-1.27-.8h0c-.54,0-1.04.31-1.27.8l-21.63,45.2c-.21.44-.18.95.08,1.36.26.41.71.66,1.2.66h20.67c.55,0,1.04-.31,1.28-.81l11.32-23.86c.18-.39.18-.83,0-1.22l-10.36-21.34ZM1274.13,791.14h-17.42l-27.95-58.5c-.23-.49-.73-.8-1.28-.8h-11.4v-14.12h22.35l27.82,58.5c.23.49.73.81,1.28.81h6.59v14.12ZM1275.55,774.19h-7.11l-27.82-58.5c-.23-.49-.73-.81-1.28-.81h-24.65c-.78,0-1.41.63-1.42,1.41l-.02,16.95c0,.38.15.73.41,1,.26.27.62.41,1,.41h11.92l27.95,58.5c.23.49.73.8,1.28.8h19.73c.78,0,1.42-.63,1.42-1.41v-16.95c0-.78-.63-1.41-1.42-1.41h0Z"/><path id="g" class="at" d="M1221.9,791.14h-17.53l19.39-40.53,8.79,18.09-10.65,22.44ZM1225.03,746.73c-.24-.49-.73-.8-1.27-.8h0c-.54,0-1.04.31-1.27.8l-21.63,45.2c-.21.44-.18.95.08,1.36.26.41.71.66,1.2.66h20.67c.55,0,1.04-.31,1.28-.81l11.32-23.86c.18-.39.18-.83,0-1.22l-10.36-21.34ZM1274.13,791.14h-17.42l-27.95-58.5c-.23-.49-.73-.8-1.28-.8h-11.4v-14.12h22.35l27.82,58.5c.23.49.73.81,1.28.81h6.59v14.12ZM1275.55,774.19h-7.11l-27.82-58.5c-.23-.49-.73-.81-1.28-.81h-24.65c-.78,0-1.41.63-1.42,1.41l-.02,16.95c0,.38.15.73.41,1,.26.27.62.41,1,.41h11.92l27.95,58.5c.23.49.73.8,1.28.8h19.73c.78,0,1.42-.63,1.42-1.41v-16.95c0-.78-.63-1.41-1.42-1.41h0Z"/><path id="h" class="at" d="M1221.9,1004.85h-17.53l19.39-40.53,8.79,18.09-10.65,22.44ZM1225.03,960.44c-.24-.49-.73-.8-1.27-.8h0c-.54,0-1.04.31-1.27.8l-21.63,45.2c-.21.44-.18.95.08,1.36.26.41.71.66,1.2.66h20.67c.55,0,1.04-.31,1.28-.81l11.32-23.86c.18-.39.18-.83,0-1.22l-10.36-21.34ZM1274.13,1004.85h-17.42l-27.95-58.5c-.23-.49-.73-.8-1.28-.8h-11.4v-14.12h22.35l27.82,58.5c.23.49.73.81,1.28.81h6.59v14.12ZM1275.55,987.9h-7.11l-27.82-58.5c-.23-.49-.73-.81-1.28-.81h-24.65c-.78,0-1.41.63-1.42,1.41l-.02,16.95c0,.38.15.73.41,1,.26.27.62.41,1,.41h11.92l27.95,58.5c.23.49.73.8,1.28.8h19.73c.78,0,1.42-.63,1.42-1.41v-16.95c0-.78-.63-1.41-1.42-1.41h0Z"/><g id="i"><rect id="j" class="bj" x="1166.93" y="1330.64" width="144" height="144" rx="20" ry="20"/></g><g id="k"><rect id="l" class="bj" x="2176.07" y="322.69" width="144" height="144" rx="20" ry="20"/></g><g id="m"><rect id="n" class="bj" x="1671.76" y="682.59" width="144" height="144" rx="20" ry="20"/></g><g id="o"><rect id="p" class="bj" x="1166.93" y="1114.57" width="144" height="144" rx="20" ry="20"/></g><g id="q"><rect id="r" class="bj" x="2176.13" y="1114.59" width="144" height="144" rx="20" ry="20"/></g><g id="s"><rect id="t" class="be" x="663.94" y="322.58" width="144" height="144" rx="20" ry="20"/></g><path id="u" class="at" d="M756.69,411.21c0-2.27-1.85-4.12-4.12-4.12s-4.12,1.85-4.12,4.12,1.85,4.12,4.12,4.12,4.12-1.85,4.12-4.12h0ZM759.44,411.21c0,3.78-3.08,6.86-6.86,6.86s-6.86-3.08-6.86-6.86,3.08-6.86,6.86-6.86,6.86,3.08,6.86,6.86h0ZM722.75,391.41c0-2.27-1.85-4.12-4.12-4.12s-4.12,1.85-4.12,4.12,1.85,4.12,4.12,4.12,4.12-1.85,4.12-4.12h0ZM725.5,391.41c0,3.78-3.08,6.86-6.86,6.86s-6.86-3.08-6.86-6.86,3.08-6.86,6.86-6.86,6.86,3.08,6.86,6.86h0ZM735.57,369.88c0,2.27,1.85,4.12,4.12,4.12s4.12-1.85,4.12-4.12-1.85-4.12-4.12-4.12-4.12,1.85-4.12,4.12h0ZM732.82,369.88c0-3.78,3.08-6.86,6.86-6.86s6.86,3.08,6.86,6.86-3.08,6.86-6.86,6.86-6.86-3.08-6.86-6.86h0ZM771.62,394.58c0-12.73-6.82-24.5-17.83-30.87-1.97.4-3.88.94-6.26,1.8l-.93-2.58c1.24-.45,2.35-.81,3.42-1.12-4.42-1.91-9.22-2.92-14.09-2.92-2.32,0-4.6.24-6.83.68,1.61.94,3.05,1.89,4.44,2.94l-1.66,2.19c-1.96-1.49-3.99-2.74-6.66-4.14-13.48,4.24-23.18,16.12-24.72,30.08,2.83-.57,5.54-.88,8.55-.96l.07,2.74c-3.16.08-5.87.41-8.83,1.07-.01.36-.04.73-.04,1.09,0,11.88,5.88,22.83,15.55,29.44-1.72-5.12-2.58-9.96-2.58-14.69,0-2.7.46-4.91.95-7.25.11-.54.23-1.09.34-1.67l2.69.53c-.12.58-.23,1.15-.35,1.7-.48,2.29-.9,4.28-.9,6.69,0,5.36,1.18,10.91,3.57,16.93,5.1,2.65,10.62,4,16.4,4,3.78,0,7.47-.6,11-1.77,1.38-2.73,2.41-5.3,3.26-8.26l2.64.76c-.63,2.15-1.34,4.11-2.2,6.07,2.22-1,4.31-2.23,6.28-3.67-.47-1.16-.98-2.32-1.54-3.44l2.46-1.23c.48.96.92,1.93,1.33,2.92,7.94-6.8,12.46-16.56,12.46-27.08h0ZM774.37,394.58c0,11.98-5.44,23.06-14.93,30.4-2.35,1.83-4.9,3.34-7.59,4.56-1.14.52-2.31,1-3.5,1.4-3.95,1.37-8.13,2.07-12.4,2.07-6.31,0-12.58-1.57-18.13-4.55-12.52-6.7-20.3-19.68-20.3-33.88,0-.94.02-1.66.08-2.32.93-16.04,11.94-29.92,27.37-34.51,3.52-1.06,7.21-1.6,10.98-1.6,6.6,0,13.09,1.7,18.78,4.91,12.12,6.79,19.65,19.63,19.65,33.52h0ZM732.25,374.62l-1.8-2.07c-3.08,2.68-5.47,5.54-8.27,9.84l2.3,1.49c2.65-4.08,4.9-6.76,7.77-9.27h0ZM728.08,392.42l-.89,2.6c6.3,2.16,11.8,5.62,17.31,10.87l1.9-1.99c-5.8-5.53-11.62-9.18-18.31-11.48h0ZM746.43,376.28c5.15,7.85,8.05,16.47,8.62,25.63l-2.74.17c-.54-8.67-3.29-16.84-8.17-24.29l2.29-1.51Z"/><g id="v"><rect id="w" class="bi" x="1671.76" y="1114.58" width="144" height="144" rx="20" ry="20"/></g><path id="x" class="at" d="M1709.54,1150.4l12.93,12.93-1.97,1.97-12.93-12.93v10.56h-2.78v-13.92c0-.77.62-1.39,1.39-1.39h13.92v2.78h-10.56ZM1782.72,1149v13.92h-2.78v-10.56l-12.93,12.93-1.97-1.97,12.93-12.93h-10.56v-2.78h13.92c.77,0,1.39.62,1.39,1.39h0ZM1779.94,1210.23h2.78v13.92c0,.77-.62,1.39-1.39,1.39h-13.92v-2.78h10.56l-12.93-12.93,1.97-1.97,12.93,12.93v-10.56ZM1779.24,1185.48c0-4.62-5.33-9.18-14.26-12.21l.89-2.64c10.27,3.47,16.15,8.88,16.15,14.84s-5.89,11.37-16.16,14.84l-.89-2.64c8.93-3.02,14.26-7.58,14.26-12.21h0ZM1708.35,1185.48c0,4.43,4.99,8.87,13.35,11.88l-.94,2.62c-9.65-3.48-15.19-8.77-15.19-14.5s5.54-11.02,15.19-14.5l.94,2.62c-8.36,3.02-13.35,7.46-13.35,11.88h0ZM1722.47,1209.82l-12.93,12.93h10.56v2.78h-13.92c-.77,0-1.39-.62-1.39-1.39v-13.92h2.78v10.56l12.93-12.93,1.97,1.97ZM1743.76,1174.45c-9.94,0-15.31-2.57-15.31-3.62s5.36-3.62,15.31-3.62,15.31,2.57,15.31,3.62-5.36,3.62-15.31,3.62h0ZM1743.8,1185.23c-9.52,0-15.35-2.6-15.35-4.02v-6.76c3.43,1.89,9.51,2.79,15.31,2.79s11.88-.89,15.31-2.79v6.76c0,1.42-5.8,4.02-15.27,4.02h0ZM1743.8,1195.85c-9.52,0-15.35-2.6-15.35-4.02v-6.85c3.38,1.99,9.38,3.02,15.35,3.02s11.9-1.03,15.27-3.01v6.84c0,1.42-5.8,4.02-15.27,4.02h0ZM1743.76,1205.39c-9.9,0-15.31-2.66-15.31-4.03v-5.74c3.38,1.99,9.38,3.02,15.35,3.02s11.9-1.03,15.27-3.01v5.73c0,1.37-5.4,4.03-15.31,4.03h0ZM1743.76,1164.43c-8.71,0-18.09,2-18.09,6.4v30.53c0,4.47,9.1,6.81,18.09,6.81s18.09-2.34,18.09-6.81v-30.53c0-4.4-9.38-6.4-18.09-6.4h0Z"/><g id="y"><rect id="z" class="bh" x="2176.14" y="682.57" width="144" height="144" rx="20" ry="20"/></g><path id="aa" class="at" d="M2231.3,760.07l4.48-4.43c.28-.28.44-.65.44-1.05,0-.39-.16-.77-.43-1.05l-4.48-4.48-2.12,2.09,1.92,1.92h-6.84v2.97h6.86l-1.94,1.92,2.11,2.1ZM2265.5,760.21l5.98-4.46c.37-.28.6-.72.6-1.19s-.22-.91-.6-1.19l-5.98-4.45-1.79,2.38,2.39,1.78h-5.98v2.97h5.97l-2.39,1.78,1.8,2.38ZM2240.99,754.57c0,3.15-.55,6.12-1.56,8.71,2.69-1.03,5.72-1.55,8.75-1.55s6.06.52,8.75,1.55c-1.02-2.59-1.56-5.56-1.56-8.71s.55-6.12,1.56-8.71c-5.37,2.06-12.12,2.06-17.49,0,1.02,2.59,1.56,5.56,1.56,8.71h0ZM2233.67,768.98c-.29-.29-.44-.67-.44-1.05s.15-.76.44-1.05c2.71-2.69,4.33-7.3,4.33-12.31s-1.62-9.62-4.33-12.31c-.29-.29-.44-.67-.44-1.05s.15-.76.44-1.05c.58-.58,1.53-.58,2.11,0,5.79,5.75,18.99,5.75,24.78,0,.58-.58,1.53-.58,2.11,0,.29.29.44.67.44,1.05s-.15.76-.44,1.05c-2.71,2.69-4.33,7.3-4.33,12.31s1.62,9.62,4.33,12.31c.29.29.44.67.44,1.05s-.15.76-.44,1.05-.67.43-1.06.43-.76-.15-1.06-.43c-5.79-5.75-18.99-5.75-24.78,0-.58.58-1.53.58-2.11,0h0ZM2286.96,754.57c0-1.38-.54-2.68-1.53-3.66-1.02-1.01-2.35-1.51-3.69-1.51s-2.67.5-3.69,1.51c-2.03,2.02-2.03,5.3,0,7.32,2.03,2.02,5.34,2.02,7.37,0,.98-.98,1.53-2.28,1.53-3.66h0ZM2287.55,760.34c-1.6,1.59-3.7,2.38-5.8,2.38s-4.2-.79-5.8-2.38c-3.2-3.18-3.2-8.35,0-11.52,3.2-3.18,8.4-3.18,11.6,0,3.2,3.18,3.2,8.35,0,11.52h0ZM2219.74,754.61c0-1.38-.54-2.68-1.53-3.66-.98-.98-2.29-1.52-3.69-1.52s-2.7.54-3.69,1.52c-.98.98-1.53,2.28-1.53,3.66s.54,2.68,1.53,3.66c1.97,1.96,5.4,1.96,7.37,0,.98-.98,1.53-2.28,1.53-3.66h0ZM2220.33,760.37c-1.6,1.59-3.7,2.38-5.8,2.38s-4.2-.79-5.8-2.38c-3.2-3.18-3.2-8.35,0-11.52,3.2-3.18,8.4-3.18,11.6,0,3.2,3.18,3.2,8.35,0,11.52h0ZM2270.38,776.75c-5.96,5.93-13.9,9.19-22.33,9.19s-16.37-3.26-22.33-9.19c-4.09-4.06-6.34-8.92-7.51-12.27l-2.82.97c1.27,3.65,3.73,8.94,8.22,13.4,6.53,6.49,15.21,10.06,24.44,10.06s17.91-3.57,24.44-10.06c3.77-3.75,6.78-8.51,8.46-13.41l-2.83-.96c-1.54,4.48-4.29,8.84-7.75,12.27h0ZM2218.21,744.66l-2.82-.97c1.81-5.17,4.73-9.93,8.23-13.41,6.53-6.48,15.2-10.05,24.44-10.05s17.91,3.57,24.43,10.05c3.68,3.66,6.77,8.55,8.47,13.41l-2.82.97c-1.56-4.45-4.39-8.93-7.76-12.28-5.96-5.92-13.89-9.18-22.32-9.18s-16.36,3.26-22.32,9.18c-3.19,3.17-5.86,7.53-7.52,12.28h0Z"/><g id="ab"><rect class="as" x="1167.91" y="322.63" width="144" height="144" rx="20" ry="20"/></g><g id="ac"><path id="ad" class="at" d="M1271.03,398.96l.57-4.04c5.29,3.17,5.36,4.48,5.36,4.52,0,0-.91.76-5.94-.47h0ZM1268.12,398.15c-9.15-2.77-21.89-8.61-27.05-11.05,0-.02,0-.04,0-.06,0-1.98-1.61-3.59-3.59-3.59s-3.59,1.61-3.59,3.59,1.61,3.59,3.59,3.59c.87,0,1.66-.32,2.28-.84,6.07,2.87,18.71,8.63,27.93,11.35l-3.64,25.72c-.01.07-.01.14-.01.21,0,2.26-10.03,6.43-26.41,6.43s-26.69-4.16-26.69-6.43c0-.07,0-.14-.01-.2l-7.62-55.62c6.59,4.54,20.77,6.94,34.33,6.94s27.69-2.39,34.3-6.92l-3.81,26.88ZM1202.5,365.45c.11-1.97,11.41-9.68,35.13-9.68s35.02,7.72,35.13,9.68v.67c-1.3,4.41-15.95,9.08-35.13,9.08s-33.87-4.68-35.13-9.1v-.65ZM1275.76,365.48c0-5.18-14.85-12.71-38.12-12.71s-38.12,7.53-38.12,12.71l.14,1.13,8.29,60.58c.2,6.78,18.27,9.3,29.68,9.3,14.16,0,29.21-3.26,29.4-9.3l3.58-25.26c1.99.48,3.63.72,4.95.72,1.77,0,2.96-.43,3.69-1.3.6-.71.82-1.57.65-2.48-.39-2.07-2.84-4.3-7.85-7.15l3.55-25.06.15-1.19Z"/></g><g id="ae"><rect class="as" x="1671.86" y="322.39" width="144" height="144" rx="20" ry="20"/></g><g id="af"><rect class="bh" x="663.66" y="1006.56" width="144" height="144" rx="20" ry="20"/></g><g id="ag"><path id="ah" class="at" d="M727.59,1099.82h3.99v-2.74h-3.99v2.74ZM734.3,1099.82h4.08v-2.74h-4.08v2.74ZM717.98,1044.05l-17.68,8.78v54.55l17.68,5.98v-69.31ZM720.7,1061.41v35.66h4.08v2.74h-4.08v15.45c0,.44-.21.86-.57,1.11-.23.17-.51.26-.79.26-.14,0-.29-.02-.43-.07l-20.4-6.9c-.55-.19-.93-.71-.93-1.3v-56.4c0-.52.3-1,.76-1.23l20.4-10.13c.42-.21.92-.19,1.32.07.4.25.64.69.64,1.16v16.82h4.08v2.74h-4.08ZM741.1,1099.82h4.08v-2.74h-4.08v2.74ZM741.19,1061.41h3.99v-2.74h-3.99v2.74ZM734.39,1061.41h3.99v-2.74h-3.99v2.74ZM727.59,1061.41h3.99v-2.74h-3.99v2.74ZM771.02,1052.83l-17.68-8.78v69.31l17.68-5.98v-54.55ZM773.74,1108.37c0,.59-.37,1.11-.93,1.3l-20.4,6.9c-.14.05-.29.07-.43.07-.28,0-.56-.09-.79-.26-.35-.26-.57-.67-.57-1.11v-15.45h-2.63v-2.74h2.63v-35.66h-2.63v-2.74h2.63v-16.82c0-.47.24-.91.64-1.16.4-.25.9-.28,1.32-.07l20.4,10.13c.47.23.76.71.76,1.23v56.4ZM739.65,1070.13l-2.54-.98-6.8,17.83,2.54.98,6.8-17.83ZM748.86,1078.84c.53-.54.53-1.4,0-1.94l-5.44-5.49-1.92,1.94,4.48,4.52-4.48,4.52,1.92,1.94,5.44-5.49ZM727.9,1084.33l-5.44-5.49c-.53-.54-.53-1.4,0-1.94l5.44-5.49,1.92,1.94-4.48,4.52,4.48,4.52-1.92,1.94Z"/></g><path class="au" d="M2584.29,748.45c-.62,0-1.12-.5-1.12-1.12v-1.51c0-.62.5-1.12,1.12-1.12h25.42c.62,0,1.12.5,1.12,1.12v1.51c0,.62-.5,1.12-1.12,1.12h-25.42Z"/><path class="au" d="M2565.4,748.45c-.62,0-1.12-.5-1.12-1.12v-1.51c0-.62.5-1.12,1.12-1.12h12.95c.62,0,1.12.5,1.12,1.12v1.51c0,.62-.5,1.12-1.12,1.12h-12.95Z"/><path class="au" d="M2618.78,748.45c-.62,0-1.12-.5-1.12-1.12v-1.51c0-.62.5-1.12,1.12-1.12h15.1c.62,0,1.12.5,1.12,1.12v1.51c0,.62-.5,1.12-1.12,1.12h-15.1Z"/><path class="au" d="M2621.27,743.07c-.62,0-1.12-.5-1.12-1.12v-1.51c0-.62.5-1.12,1.12-1.12h12.6c.62,0,1.12.5,1.12,1.12v1.51c0,.62-.5,1.12-1.12,1.12h-12.6Z"/><path class="au" d="M2638.05,743.07c-.62,0-1.12-.5-1.12-1.12v-1.51c0-.62.5-1.12,1.12-1.12h9.5c.62,0,1.12.5,1.12,1.12v1.51c0,.62-.5,1.12-1.12,1.12h-9.5Z"/><path class="au" d="M2633.06,737.56c-.62,0-1.12-.5-1.12-1.12v-1.51c0-.62.5-1.12,1.12-1.12h11.14c.62,0,1.12.5,1.12,1.12v1.51c0,.62-.5,1.12-1.12,1.12h-11.14Z"/><path class="au" d="M2637.27,732.19c-.62,0-1.12-.5-1.12-1.12v-1.51c0-.62.5-1.12,1.12-1.12h1.72c.62,0,1.12.5,1.12,1.12v1.51c0,.62-.5,1.12-1.12,1.12h-1.72Z"/><path class="au" d="M2622.09,737.56c-.62,0-1.12-.5-1.12-1.12v-1.51c0-.62.5-1.12,1.12-1.12h1.72c.62,0,1.12.5,1.12,1.12v1.51c0,.62-.5,1.12-1.12,1.12h-1.72Z"/><path class="au" d="M2597.36,775.37c-.62,0-1.12-.5-1.12-1.12v-1.64c0-.62.5-1.12,1.12-1.12h4.6c.62,0,1.12.5,1.12,1.12v1.64c0,.62-.5,1.12-1.12,1.12h-4.6Z"/><path class="au" d="M2609.19,775.37c-.62,0-1.12-.5-1.12-1.12v-1.64c0-.62.5-1.12,1.12-1.12h2.24c.62,0,1.12.5,1.12,1.12v1.64c0,.62-.5,1.12-1.12,1.12h-2.24Z"/><path class="au" d="M2615.73,775.37c-.62,0-1.12-.5-1.12-1.12v-1.64c0-.62.5-1.12,1.12-1.12h9.81c.62,0,1.12.5,1.12,1.12v1.64c0,.62-.5,1.12-1.12,1.12h-9.81Z"/><path class="au" d="M2621.75,769.99c-.62,0-1.12-.5-1.12-1.12v-1.64c0-.62.5-1.12,1.12-1.12h2.75c.62,0,1.12.5,1.12,1.12v1.64c0,.62-.5,1.12-1.12,1.12h-2.75Z"/><path class="au" d="M2587.94,775.37c-.62,0-1.12-.5-1.12-1.12v-1.64c0-.62.5-1.12,1.12-1.12h1.72c.62,0,1.12.5,1.12,1.12v1.64c0,.62-.5,1.12-1.12,1.12h-1.72Z"/><path class="au" d="M2605.02,777.99c0-.6.47-1.12,1.12-1.12h1.72c.6,0,1.12.47,1.12,1.12v1.68c0,.6-.47,1.12-1.12,1.12h-1.72c-.6,0-1.12-.47-1.12-1.12v-1.68Z"/><path class="au" d="M2602.31,786.12c-.62,0-1.12-.5-1.12-1.12v-1.63c0-.62.5-1.12,1.12-1.12h1.51c.62,0,1.12.5,1.12,1.12v1.63c0,.62-.5,1.12-1.12,1.12h-1.51Z"/><path class="au" d="M2617.19,726.81c-.62,0-1.12-.5-1.12-1.12v-1.51c0-.62.5-1.12,1.12-1.12h2.67c.62,0,1.12.5,1.12,1.12v1.51c0,.62-.5,1.12-1.12,1.12h-2.67Z"/><path class="au" d="M2589.4,743.07c-.62,0-1.12-.5-1.12-1.12v-1.51c0-.62.5-1.12,1.12-1.12h10.24c.62,0,1.12.5,1.12,1.12v1.51c0,.62-.5,1.12-1.12,1.12h-10.24Z"/><path class="au" d="M2612.59,732.19c-.62,0-1.12-.5-1.12-1.12v-1.51c0-.62.5-1.12,1.12-1.12h5.33c.62,0,1.12.5,1.12,1.12v1.51c0,.62-.5,1.12-1.12,1.12h-5.33Z"/><path class="au" d="M2607.9,737.56c-.62,0-1.12-.5-1.12-1.12v-1.51c0-.62.5-1.12,1.12-1.12h10.02c.62,0,1.12.5,1.12,1.12v1.51c0,.62-.5,1.12-1.12,1.12h-10.02Z"/><path class="au" d="M2646.01,748.45c-.62,0-1.12-.5-1.12-1.12v-1.51c0-.62.5-1.12,1.12-1.12h4.9c.62,0,1.12.5,1.12,1.12v1.51c0,.62-.5,1.12-1.12,1.12h-4.9Z"/><path class="au" d="M2578.57,753.82c-.62,0-1.12-.5-1.12-1.12v-1.51c0-.62.5-1.12,1.12-1.12h33.07c.62,0,1.12.5,1.12,1.12v1.51c0,.62-.5,1.12-1.12,1.12h-33.07Z"/><path class="au" d="M2610.61,764.58c-.62,0-1.12-.5-1.12-1.12v-1.51c0-.62.5-1.12,1.12-1.12h11.57c.62,0,1.12.5,1.12,1.12v1.51c0,.62-.5,1.12-1.12,1.12h-11.57Z"/><path class="au" d="M2584.29,759.2c-.62,0-1.12-.5-1.12-1.12v-1.51c0-.62.5-1.12,1.12-1.12h42.62c.62,0,1.12.5,1.12,1.12v1.51c0,.62-.5,1.12-1.12,1.12h-42.62Z"/><path class="au" d="M2577.4,764.58c-.62,0-1.12-.5-1.12-1.12v-1.51c0-.62.5-1.12,1.12-1.12h14.45c.62,0,1.12.5,1.12,1.12v1.51c0,.62-.5,1.12-1.12,1.12h-14.45Z"/><path class="au" d="M2592.63,769.99c-.62,0-1.12-.5-1.12-1.12v-1.64c0-.62.5-1.12,1.12-1.12h3.23c.62,0,1.12.5,1.12,1.12v1.64c0,.62-.5,1.12-1.12,1.12h-3.23Z"/><path class="au" d="M2611.9,769.99c-.62,0-1.12-.5-1.12-1.12v-1.64c0-.62.5-1.12,1.12-1.12h3.66c.62,0,1.12.5,1.12,1.12v1.64c0,.62-.5,1.12-1.12,1.12h-3.66Z"/><path class="au" d="M2582.52,769.99c-.62,0-1.12-.5-1.12-1.12v-1.64c0-.62.5-1.12,1.12-1.12h3.31c.62,0,1.12.5,1.12,1.12v1.64c0,.62-.5,1.12-1.12,1.12h-3.31Z"/><path class="au" d="M2618.78,753.82c-.62,0-1.12-.5-1.12-1.12v-1.51c0-.62.5-1.12,1.12-1.12h12c.62,0,1.12.5,1.12,1.12v1.51c0,.62-.5,1.12-1.12,1.12h-12Z"/><rect class="bl" x="303.92" y="682.66" width="144" height="144" rx="20" ry="20"/><path class="au" d="M377.84,749.56c-8.79,0-15.93-7.15-15.93-15.93s7.15-15.93,15.93-15.93,15.93,7.15,15.93,15.93-7.15,15.93-15.93,15.93ZM377.84,720.28c-7.36,0-13.35,5.99-13.35,13.35s5.99,13.35,13.35,13.35,13.35-5.99,13.35-13.35-5.99-13.35-13.35-13.35Z"/><path class="au" d="M411.59,791.62h-67.49v-13.86c0-13.89,11.3-25.19,25.19-25.19h17.11c13.89,0,25.19,11.3,25.19,25.19v13.86ZM346.68,789.04h62.32v-11.28c0-12.47-10.14-22.61-22.61-22.61h-17.11c-12.47,0-22.61,10.14-22.61,22.61v11.28Z"/><rect class="au" x="358.93" y="775.39" width="2.58" height="14.94"/><rect class="au" x="394.12" y="775.39" width="2.58" height="14.94"/><line class="az" x1="850.35" y1="394.97" x2="1134.02" y2="394.97"/><polygon class="bf" points="1120.66 409.07 1120.26 380.87 1144.88 394.63 1120.66 409.07"/><polygon class="ax" points="1628.86 408.72 1628.86 380.52 1653.28 394.62 1628.86 408.72"/><polygon class="ax" points="1353.75 740.32 1353.75 768.52 1329.33 754.42 1353.75 740.32"/><polygon class="bf" points="850.14 380.22 850.54 408.41 825.92 394.66 850.14 380.22"/><line class="ay" x1="1833.58" y1="394.39" x2="2136.1" y2="394.39"/><polyline class="ax" points="2157.38 394.05 2133.16 408.49 2132.77 380.29 2157.38 394.05"/><line class="az" x1="1994.24" y1="435.38" x2="2157.38" y2="435.38"/><line class="az" x1="735.66" y1="539.94" x2="735.66" y2="964.14"/><polyline class="bf" points="735.95 988.56 721.85 964.14 750.05 964.14 735.95 988.56"/><polyline class="bf" points="735.97 530.3 750.07 554.72 721.87 554.72 735.97 530.3"/><line class="az" x1="1743.56" y1="527.1" x2="1743.56" y2="644.66"/><polyline class="bf" points="1743.85 664.7 1729.75 640.28 1757.95 640.28 1743.85 664.7"/><line class="ay" x1="1746.39" y1="249.16" x2="1746.39" y2="285.13"/><polyline class="ax" points="1746.68 305.17 1732.58 280.75 1760.78 280.75 1746.68 305.17"/><line class="ay" x1="2248.11" y1="527.1" x2="2248.11" y2="644.66"/><polyline class="ax" points="2248.11 664.7 2234.01 640.28 2262.21 640.28 2248.11 664.7"/><line class="az" x1="1743.25" y1="1322.3" x2="1743.25" y2="1402.64"/><polyline class="bf" points="1743.56 1314.97 1757.66 1339.4 1729.46 1339.4 1743.56 1314.97"/><line class="az" x1="1743.56" y1="890.14" x2="1743.56" y2="1076.09"/><polyline class="bf" points="1743.76 1096.63 1729.66 1072.21 1757.86 1072.21 1743.76 1096.63"/><line class="ay" x1="2247.93" y1="890.14" x2="2247.93" y2="1076.09"/><polyline class="ax" points="2248.13 1096.63 2234.03 1072.21 2262.23 1072.21 2248.13 1096.63"/><polyline class="ax" points="2248.13 883.79 2262.23 908.21 2234.03 908.21 2248.13 883.79"/><line class="ay" x1="2607.09" y1="392.19" x2="2607.09" y2="644.66"/><polyline class="ax" points="2607.09 664.7 2592.99 640.28 2621.19 640.28 2607.09 664.7"/><polyline class="ax" points="2338.13 394.6 2362.55 380.5 2362.55 408.7 2338.13 394.6"/><polyline class="ax" points="2338.13 1186.59 2362.55 1172.49 2362.55 1200.69 2338.13 1186.59"/><line class="ay" x1="2579.61" y1="890.14" x2="2579.61" y2="1189.09"/><polyline class="ax" points="2579.61 883.8 2593.71 908.22 2565.51 908.22 2579.61 883.8"/><line class="ba" x1="2634.1" y1="890.14" x2="2634.1" y2="1362.2"/><polyline class="aq" points="2634.1 883.8 2648.2 908.22 2620 908.22 2634.1 883.8"/><polyline class="ax" points="1149.74 754.6 1125.32 768.7 1125.32 740.5 1149.74 754.6"/><polyline class="bf" points="1149.85 970.59 1125.42 984.69 1125.42 956.49 1149.85 970.59"/><polyline class="aq" points="1149.74 1186.6 1125.32 1200.7 1125.32 1172.5 1149.74 1186.6"/><polyline class="bf" points="825.98 1060.69 850.4 1046.59 850.4 1074.79 825.98 1060.69"/><polyline class="bf" points="1149.74 1402.59 1125.32 1416.69 1125.32 1388.49 1149.74 1402.59"/><polygon class="bf" points="621.76 409.23 621.36 381.03 645.98 394.79 621.76 409.23"/><polygon class="bf" points="416.45 640.66 388.25 640.27 402.01 664.88 416.45 640.66"/><line class="az" x1="402.23" y1="640.46" x2="402.23" y2="393.32"/><line class="ay" x1="348.62" y1="664.88" x2="348.62" y2="249.21"/><line class="az" x1="621.36" y1="395.82" x2="400.2" y2="395.82"/><line class="ay" x1="1746.68" y1="251.66" x2="346.41" y2="251.66"/><line class="ay" x1="951.43" y1="749.45" x2="951.43" y2="1025.33"/><line class="az" x1="986.93" y1="968.04" x2="986.93" y2="1060.69"/><line class="ba" x1="986.93" y1="1094.13" x2="986.93" y2="1189.07"/><line class="az" x1="951.43" y1="1131.52" x2="951.43" y2="1404.84"/><line class="ay" x1="951.43" y1="751.94" x2="1125.42" y2="751.94"/><line class="az" x1="1125.42" y1="970.59" x2="986.93" y2="970.59"/><line class="ba" x1="1127.13" y1="1186.6" x2="985.61" y2="1186.6"/><line class="az" x1="1126.57" y1="1402.59" x2="951.43" y2="1402.59"/><polyline class="bf" points="1329.64 970.59 1354.06 984.69 1354.06 956.49 1329.64 970.59"/><polyline class="aq" points="1329.74 1186.6 1354.16 1200.7 1354.16 1172.5 1329.74 1186.6"/><polyline class="bf" points="1329.74 1402.64 1354.16 1416.74 1354.16 1388.54 1329.74 1402.64"/><line class="az" x1="1354.06" y1="970.59" x2="1491.27" y2="970.59"/><line class="ba" x1="1491.27" y1="1359.7" x2="2634.1" y2="1359.7"/><line class="az" x1="849.41" y1="1060.63" x2="989.42" y2="1060.63"/><polyline class="ax" points="825.98 1025.39 850.4 1011.29 850.4 1039.49 825.98 1025.39"/><line class="ay" x1="849.41" y1="1025.33" x2="953.92" y2="1025.33"/><polyline class="aq" points="825.98 1096.69 850.4 1082.59 850.4 1110.79 825.98 1096.69"/><line class="ba" x1="849.41" y1="1096.63" x2="986.93" y2="1096.63"/><polyline class="bf" points="825.98 1134.07 850.4 1119.97 850.4 1148.17 825.98 1134.07"/><line class="az" x1="849.41" y1="1134.01" x2="951.43" y2="1134.01"/><polyline class="aq" points="648.66 1100.29 624.24 1114.39 624.24 1086.2 648.66 1100.29"/><line class="ba" x1="625.23" y1="1098.84" x2="356.53" y2="1098.84"/><polyline class="bf" points="648.66 1134.07 624.24 1148.17 624.24 1119.97 648.66 1134.07"/><line class="az" x1="625.23" y1="1134.13" x2="319.15" y2="1134.13"/><polyline class="bf" points="648.66 1062.78 624.24 1076.88 624.24 1048.68 648.66 1062.78"/><line class="az" x1="625.23" y1="1062.84" x2="392.6" y2="1062.84"/><polyline class="ax" points="648.66 1025.39 624.24 1039.49 624.24 1011.29 648.66 1025.39"/><line class="ay" x1="625.23" y1="1025.45" x2="427.97" y2="1025.45"/><polyline class="bf" points="394.98 884.37 409.08 908.79 380.88 908.79 394.98 884.37"/><line class="az" x1="395.04" y1="902.2" x2="395.04" y2="1062.84"/><polyline class="ax" points="430.27 884.37 444.37 908.79 416.18 908.79 430.27 884.37"/><line class="ay" x1="430.33" y1="902.2" x2="430.33" y2="1025.45"/><polyline class="aq" points="358.98 884.37 373.08 908.79 344.88 908.79 358.98 884.37"/><line class="ba" x1="359.04" y1="902.2" x2="359.04" y2="1098.84"/><polyline class="bf" points="321.6 884.37 335.7 908.79 307.5 908.79 321.6 884.37"/><line class="az" x1="321.66" y1="905.59" x2="321.66" y2="1134.13"/><polyline class="aq" points="1652.91 1186.6 1628.49 1200.7 1628.49 1172.5 1652.91 1186.6"/><polyline class="bf" points="1652.91 1141.6 1628.49 1155.7 1628.49 1127.5 1652.91 1141.6"/><line class="ba" x1="1630.97" y1="1186.66" x2="1354.16" y2="1186.66"/><polyline class="ax" points="1834.03 1186.6 1858.45 1200.7 1858.45 1172.5 1834.03 1186.6"/><polyline class="bf" points="1834.03 1141.87 1858.45 1155.97 1858.45 1127.78 1834.03 1141.87"/><polyline class="ax" points="2157.42 1186.6 2132.99 1200.7 2133 1172.5 2157.42 1186.6"/><line class="ay" x1="2144.57" y1="1186.66" x2="1857.69" y2="1186.66"/><polyline class="aq" points="1329.74 1231.6 1354.16 1245.7 1354.16 1217.5 1329.74 1231.6"/><line class="ba" x1="1352.35" y1="1231.6" x2="1456.26" y2="1231.6"/><line class="ba" x1="1491.42" y1="1231.66" x2="1456.3" y2="1231.66"/><line class="ay" x1="1339.65" y1="754.42" x2="1492.71" y2="754.42"/><line class="ay" x1="1491.42" y1="756.92" x2="1491.42" y2="391.85"/><line class="ay" x1="1489.66" y1="394.39" x2="1628.86" y2="394.39"/><line class="ay" x1="2362.55" y1="394.69" x2="2607.09" y2="394.69"/><line class="ay" x1="2362.55" y1="1186.59" x2="2579.61" y2="1186.59"/><line class="az" x1="1491.27" y1="968.09" x2="1491.27" y2="1144.07"/><line class="az" x1="1632.1" y1="1141.6" x2="1488.95" y2="1141.6"/><line class="az" x1="1999.25" y1="1141.6" x2="1850.42" y2="1141.6"/><line class="ba" x1="1491.42" y1="1229.1" x2="1491.42" y2="1362.47"/><line class="az" x1="1352.35" y1="1402.64" x2="1745.75" y2="1402.64"/><line class="az" x1="1996.84" y1="435.38" x2="1996.84" y2="1139.79"/><text class="av" transform="translate(1121.69 872.15)"><tspan x="0" y="0">Upload Link Gene</tspan><tspan class="bk" x="186.29" y="0">r</tspan><tspan x="193.96" y="0">a</tspan><tspan class="bu" x="207.01" y="0">t</tspan><tspan x="214.63" y="0">or</tspan></text><text class="av" transform="translate(2107.31 511.84)"><tspan x="0" y="0">Embedding</tspan><tspan class="bk" x="120.53" y="0"> </tspan><tspan class="bo" x="126.01" y="0">T</tspan><tspan x="139.01" y="0">ask P</tspan><tspan class="bu" x="197.71" y="0">r</tspan><tspan x="205.61" y="0">oducer</tspan></text><text class="av" transform="translate(2101.77 1303.68)"><tspan x="0" y="0">Embedding</tspan><tspan class="bk" x="120.53" y="0"> </tspan><tspan class="bo" x="126.01" y="0">T</tspan><tspan x="139.01" y="0">ask Consumer</tspan></text><text class="av" transform="translate(2225.72 872.42)"><tspan x="0" y="0">SQS</tspan></text><text class="av" transform="translate(2507.05 872.37)"><tspan x="0" y="0">Embedding Model</tspan></text><text class="av" transform="translate(1120.26 512.49)"><tspan x="0" y="0">Static </tspan><tspan class="bn" x="67.36" y="0">W</tspan><tspan x="88.29" y="0">ebsite Hosting</tspan></text><text class="av" transform="translate(1670.3 512.12)"><tspan x="0" y="0">Video S</tspan><tspan class="bu" x="81.27" y="0">t</tspan><tspan x="88.89" y="0">o</tspan><tspan class="bk" x="102.57" y="0">r</tspan><tspan x="110.24" y="0">age</tspan></text><text class="av" transform="translate(1692.32 1304.08)"><tspan x="0" y="0">Database</tspan></text><text class="av" transform="translate(1633.79 872.1)"><tspan x="0" y="0">Delete Video Handler</tspan></text><text class="av" transform="translate(677.11 512.13)"><tspan x="0" y="0">Cloud</tspan><tspan class="bp" x="61.91" y="0">F</tspan><tspan class="bu" x="74.87" y="0">r</tspan><tspan x="82.77" y="0">ont</tspan></text><text class="av" transform="translate(324.84 870.86)"><tspan x="0" y="0">D</tspan><tspan class="bv" x="15.75" y="0">ev</tspan><tspan x="39.8" y="0">eloper</tspan></text><text class="av" transform="translate(667.44 1196.58)"><tspan x="0" y="0">API Gatew</tspan><tspan class="bt" x="111.29" y="0">a</tspan><tspan x="124.17" y="0">y</tspan></text><text class="av" transform="translate(1158.31 1304.24)"><tspan x="0" y="0">Sea</tspan><tspan class="bq" x="40.03" y="0">r</tspan><tspan x="47.94" y="0">ch Handler</tspan></text><text class="av" transform="translate(1133.15 1520.3)"><tspan class="bs" x="0" y="0">F</tspan><tspan x="13.02" y="0">etch</tspan><tspan class="bk" x="59.38" y="0"> </tspan><tspan class="bo" x="64.86" y="0">T</tspan><tspan x="77.86" y="0">asks Handler</tspan></text><text class="av" transform="translate(1125.42 1088.56)"><tspan class="bs" x="0" y="0">F</tspan><tspan x="13.02" y="0">etch Videos Handler</tspan></text><text class="bc" transform="translate(602.21 1584.09)"><tspan x="0" y="0">Cloud Inf</tspan><tspan class="bm" x="93.64" y="0">r</tspan><tspan class="bg" x="101.82" y="0">astructu</tspan><tspan class="br" x="187.76" y="0">r</tspan><tspan x="196.09" y="0">e</tspan></text><g id="ai"><path id="aj" class="at" d="M1776.95,398.96l.57-4.04c5.29,3.17,5.36,4.48,5.36,4.52,0,0-.91.76-5.94-.47h0ZM1774.05,398.15c-9.15-2.77-21.89-8.61-27.05-11.05,0-.02,0-.04,0-.06,0-1.98-1.61-3.59-3.59-3.59s-3.59,1.61-3.59,3.59,1.61,3.59,3.59,3.59c.87,0,1.66-.32,2.28-.84,6.07,2.87,18.71,8.63,27.93,11.35l-3.64,25.72c-.01.07-.01.14-.01.21,0,2.26-10.03,6.43-26.41,6.43s-26.69-4.16-26.69-6.43c0-.07,0-.14-.01-.2l-7.62-55.62c6.59,4.54,20.77,6.94,34.33,6.94s27.69-2.39,34.3-6.92l-3.81,26.88ZM1708.43,365.45c.11-1.97,11.41-9.68,35.13-9.68s35.02,7.72,35.13,9.68v.67c-1.3,4.41-15.95,9.08-35.13,9.08s-33.87-4.68-35.13-9.1v-.65ZM1781.68,365.48c0-5.18-14.85-12.71-38.12-12.71s-38.12,7.53-38.12,12.71l.14,1.13,8.29,60.58c.2,6.78,18.27,9.3,29.68,9.3,14.16,0,29.21-3.26,29.4-9.3l3.58-25.26c1.99.48,3.63.72,4.95.72,1.77,0,2.96-.43,3.69-1.3.6-.71.82-1.57.65-2.48-.39-2.07-2.84-4.3-7.85-7.15l3.55-25.06.15-1.19Z"/></g><path id="ak" class="at" d="M1221.9,1220.71h-17.53l19.39-40.53,8.79,18.09-10.65,22.44ZM1225.03,1176.31c-.24-.49-.73-.8-1.27-.8h0c-.54,0-1.04.31-1.27.8l-21.63,45.2c-.21.44-.18.95.08,1.36.26.41.71.66,1.2.66h20.67c.55,0,1.04-.31,1.28-.81l11.32-23.86c.18-.39.18-.83,0-1.22l-10.36-21.34ZM1274.13,1220.71h-17.42l-27.95-58.5c-.23-.49-.73-.8-1.28-.8h-11.4v-14.12h22.35l27.82,58.5c.23.49.73.81,1.28.81h6.59v14.12ZM1275.55,1203.77h-7.11l-27.82-58.5c-.23-.49-.73-.81-1.28-.81h-24.65c-.78,0-1.41.63-1.42,1.41l-.02,16.95c0,.38.15.73.41,1,.26.27.62.41,1,.41h11.92l27.95,58.5c.23.49.73.8,1.28.8h19.73c.78,0,1.42-.63,1.42-1.41v-16.95c0-.78-.63-1.41-1.42-1.41h0Z"/><path id="al" class="at" d="M1221.9,1438.59h-17.53l19.39-40.53,8.79,18.09-10.65,22.44ZM1225.03,1394.18c-.24-.49-.73-.8-1.27-.8h0c-.54,0-1.04.31-1.27.8l-21.63,45.2c-.21.44-.18.95.08,1.36.26.41.71.66,1.2.66h20.67c.55,0,1.04-.31,1.28-.81l11.32-23.86c.18-.39.18-.83,0-1.22l-10.36-21.34ZM1274.13,1438.59h-17.42l-27.95-58.5c-.23-.49-.73-.8-1.28-.8h-11.4v-14.12h22.35l27.82,58.5c.23.49.73.81,1.28.81h6.59v14.12ZM1275.55,1421.64h-7.11l-27.82-58.5c-.23-.49-.73-.81-1.28-.81h-24.65c-.78,0-1.41.63-1.42,1.41l-.02,16.95c0,.38.15.73.41,1,.26.27.62.41,1,.41h11.92l27.95,58.5c.23.49.73.8,1.28.8h19.73c.78,0,1.42-.63,1.42-1.41v-16.95c0-.78-.63-1.41-1.42-1.41h0Z"/><path id="am" class="at" d="M1728.87,791.14h-17.53l19.39-40.53,8.79,18.09-10.65,22.44ZM1732,746.73c-.24-.49-.73-.8-1.27-.8h0c-.54,0-1.04.31-1.27.8l-21.63,45.2c-.21.44-.18.95.08,1.36.26.41.71.66,1.2.66h20.67c.55,0,1.04-.31,1.28-.81l11.32-23.86c.18-.39.18-.83,0-1.22l-10.36-21.34ZM1781.1,791.14h-17.42l-27.95-58.5c-.23-.49-.73-.8-1.28-.8h-11.4v-14.12h22.35l27.82,58.5c.23.49.73.81,1.28.81h6.59v14.12ZM1782.52,774.19h-7.11l-27.82-58.5c-.23-.49-.73-.81-1.28-.81h-24.65c-.78,0-1.41.63-1.42,1.41l-.02,16.95c0,.38.15.73.41,1,.26.27.62.41,1,.41h11.92l27.95,58.5c.23.49.73.8,1.28.8h19.73c.78,0,1.42-.63,1.42-1.41v-16.95c0-.78-.63-1.41-1.42-1.41h0Z"/><path id="an" class="at" d="M2231.14,427.08h-17.53l19.39-40.53,8.79,18.09-10.65,22.44ZM2234.26,382.67c-.24-.49-.73-.8-1.27-.8h0c-.54,0-1.04.31-1.27.8l-21.63,45.2c-.21.44-.18.95.08,1.36.26.41.71.66,1.2.66h20.67c.55,0,1.04-.31,1.28-.81l11.32-23.86c.18-.39.18-.83,0-1.22l-10.36-21.34ZM2283.37,427.08h-17.42l-27.95-58.5c-.23-.49-.73-.8-1.28-.8h-11.4v-14.12h22.35l27.82,58.5c.23.49.73.81,1.28.81h6.59v14.12ZM2284.78,410.13h-7.11l-27.82-58.5c-.23-.49-.73-.81-1.28-.81h-24.65c-.78,0-1.41.63-1.42,1.41l-.02,16.95c0,.38.15.73.41,1,.26.27.62.41,1,.41h11.92l27.95,58.5c.23.49.73.8,1.28.8h19.73c.78,0,1.42-.63,1.42-1.41v-16.95c0-.78-.63-1.41-1.42-1.41h0Z"/><path id="ao" class="at" d="M2231.14,1221.67h-17.53l19.39-40.53,8.79,18.09-10.65,22.44ZM2234.26,1177.27c-.24-.49-.73-.8-1.27-.8h0c-.54,0-1.04.31-1.27.8l-21.63,45.2c-.21.44-.18.95.08,1.36.26.41.71.66,1.2.66h20.67c.55,0,1.04-.31,1.28-.81l11.32-23.86c.18-.39.18-.83,0-1.22l-10.36-21.34ZM2283.37,1221.67h-17.42l-27.95-58.5c-.23-.49-.73-.8-1.28-.8h-11.4v-14.12h22.35l27.82,58.5c.23.49.73.81,1.28.81h6.59v14.12ZM2284.78,1204.73h-7.11l-27.82-58.5c-.23-.49-.73-.81-1.28-.81h-24.65c-.78,0-1.41.63-1.42,1.41l-.02,16.95c0,.38.15.73.41,1,.26.27.62.41,1,.41h11.92l27.95,58.5c.23.49.73.8,1.28.8h19.73c.78,0,1.42-.63,1.42-1.41v-16.95c0-.78-.63-1.41-1.42-1.41h0Z"/><rect class="ax" x="91.98" y="723.13" width="20.54" height="20.54" rx="3.06" ry="3.06"/><text class="aw" transform="translate(120.33 742.69)"><tspan x="0" y="0">Ingestion</tspan></text><rect class="aq" x="91.98" y="760.21" width="20.54" height="20.54" rx="3.06" ry="3.06"/><text class="ar" transform="translate(120.33 779.77)"><tspan x="0" y="0">Sea</tspan><tspan class="bq" x="40.45" y="0">r</tspan><tspan x="48.87" y="0">ch</tspan></text></svg>