<?xml version="1.0" encoding="UTF-8" standalone="no"?>
<svg
   viewBox="118.29499 119.658 300 299.99999"
   version="1.1"
   id="svg10"
   width="300"
   height="300"
   xmlns="http://www.w3.org/2000/svg"
   xmlns:svg="http://www.w3.org/2000/svg">
  <defs
     id="defs10" />
  <g
     transform="matrix(1.9106828,0,0,1.9106828,-280.26151,-277.99664)"
     id="g8">
    <svg
       version="1.1"
       viewBox="50.940002 50.959 698.11005 698.09003"
       height="194.99443"
       width="195"
       y="189.65799"
       x="190"
       preserveAspectRatio="xMinYMin"
       style="overflow:visible"
       id="svg8">
      <path
         d="m 204.34,50.959 c -84.73,0 -153.4,68.666 -153.4,153.4 v 391.3 c 0,84.715 68.666,153.39 153.4,153.39 h 391.31 c 84.695,0 153.4,-68.681 153.4,-153.39 v -391.3 c 0,-84.73 -68.701,-153.4 -153.4,-153.4 z"
         fill="#1c1f24"
         style="fill:#1c1f24;fill-opacity:0"
         id="path1" />
      <path
         stroke-width=".60426"
         d="m 261.71,422.18 v 85.126 c 0,29.643 24.032,53.675 53.675,53.675 29.643,0 53.675,-24.031 53.675,-53.675 v -214.7 z"
         color="#000000"
         color-rendering="auto"
         dominantBaseline="auto"
         fill="#fe8149"
         imageRendering="auto"
         solidColor="#000000"
         stop-color="#000000"
         style="font-variant-ligatures:normal;font-variant-position:normal;font-variant-caps:normal;font-variant-numeric:normal;font-variant-alternates:normal;font-variant-east-asian:normal;font-feature-settings:normal;font-variation-settings:normal;text-indent:0;text-decoration-line:none;text-decoration-style:solid;text-decoration-color:#000000;text-transform:none;text-orientation:mixed;white-space:normal;shape-padding:0;shape-margin:0;inline-size:0;isolation:auto;mix-blend-mode:normal;fill:#fe8149;stroke-width:0.60426"
         id="path2" />
      <path
         stroke-width=".60426"
         d="m 529.34,238.91 c -13.98,0.20086 -27.331,5.8356 -37.217,15.724 l -107.35,107.35 113.85,37.951 69.399,-69.399 c 20.956,-20.96 20.956,-54.94 0,-75.899 -10.244,-10.248 -24.195,-15.919 -38.682,-15.724 z"
         color="#000000"
         color-rendering="auto"
         dominantBaseline="auto"
         fill="#5cead2"
         imageRendering="auto"
         solidColor="#000000"
         stop-color="#000000"
         style="font-variant-ligatures:normal;font-variant-position:normal;font-variant-caps:normal;font-variant-numeric:normal;font-variant-alternates:normal;font-variant-east-asian:normal;font-feature-settings:normal;font-variation-settings:normal;text-indent:0;text-decoration-line:none;text-decoration-style:solid;text-decoration-color:#000000;text-transform:none;text-orientation:mixed;white-space:normal;shape-padding:0;shape-margin:0;inline-size:0;isolation:auto;mix-blend-mode:normal;fill:#5cead2;stroke-width:0.60426"
         id="path3" />
      <path
         stroke-width=".60426"
         d="m 384.78,437.96 107.35,107.35 c 20.96,20.955 54.937,20.955 75.899,0 20.956,-20.96 20.959,-54.94 0,-75.898 L 498.63,400.013 Z"
         color="#000000"
         color-rendering="auto"
         dominantBaseline="auto"
         fill="#35b6d6"
         imageRendering="auto"
         solidColor="#000000"
         stop-color="#000000"
         style="font-variant-ligatures:normal;font-variant-position:normal;font-variant-caps:normal;font-variant-numeric:normal;font-variant-alternates:normal;font-variant-east-asian:normal;font-feature-settings:normal;font-variation-settings:normal;text-indent:0;text-decoration-line:none;text-decoration-style:solid;text-decoration-color:#000000;text-transform:none;text-orientation:mixed;white-space:normal;shape-padding:0;shape-margin:0;inline-size:0;isolation:auto;mix-blend-mode:normal;fill:#35b6d6;stroke-width:0.60426"
         id="path4" />
      <path
         stroke-width=".60426"
         d="M 277.43,254.69 170.08,362.04 c -20.956,20.96 -20.956,54.94 0,75.899 20.96,20.956 54.937,20.956 75.899,0 l 15.725,-15.725 z"
         color="#000000"
         color-rendering="auto"
         dominantBaseline="auto"
         fill="#ffdc45"
         imageRendering="auto"
         solidColor="#000000"
         stop-color="#000000"
         style="font-variant-ligatures:normal;font-variant-position:normal;font-variant-caps:normal;font-variant-numeric:normal;font-variant-alternates:normal;font-variant-east-asian:normal;font-feature-settings:normal;font-variation-settings:normal;text-indent:0;text-decoration-line:none;text-decoration-style:solid;text-decoration-color:#000000;text-transform:none;text-orientation:mixed;white-space:normal;shape-padding:0;shape-margin:0;inline-size:0;isolation:auto;mix-blend-mode:normal;fill:#ffdc45;stroke-width:0.60426"
         id="path5" />
      <path
         stroke-width=".60426"
         d="m 422.01,346.33 c -13.98,0.20086 -27.331,5.8356 -37.217,15.724 a 53.675,53.675 0 0 0 0,75.898 53.675,53.675 0 0 0 75.899,0 L 498.64,400.005 460.692,362.054 C 450.448,351.806 436.497,346.135 422.01,346.33 Z"
         color="#000000"
         color-rendering="auto"
         dominantBaseline="auto"
         fill="#33d2d1"
         imageRendering="auto"
         solidColor="#000000"
         stop-color="#000000"
         style="font-variant-ligatures:normal;font-variant-position:normal;font-variant-caps:normal;font-variant-numeric:normal;font-variant-alternates:normal;font-variant-east-asian:normal;font-feature-settings:normal;font-variation-settings:normal;text-indent:0;text-decoration-line:none;text-decoration-style:solid;text-decoration-color:#000000;text-transform:none;text-orientation:mixed;white-space:normal;shape-padding:0;shape-margin:0;inline-size:0;isolation:auto;mix-blend-mode:normal;fill:#33d2d1;stroke-width:0.60426"
         id="path6" />
      <path
         stroke-width=".60426"
         d="m 261.71,292.62 v 129.57 l 91.623,-91.623 c 10.199,-10.21 15.699,-24.257 15.699,-38.527 0,-1.3654 -0.13408,-2.7639 -0.18781,-3.8817 -1.0064,-12.651 -6.5469,-24.516 -15.516,-33.493 -10.244,-10.249 -24.195,-15.92 -38.424,-15.725 -14.232,0.20087 -27.583,5.8356 -37.383,15.639 -9.7983,9.8022 -15.81,23.217 -15.81,38.039 z"
         color="#000000"
         color-rendering="auto"
         dominantBaseline="auto"
         fill="#ffb94a"
         imageRendering="auto"
         solidColor="#000000"
         stop-color="#000000"
         style="font-variant-ligatures:normal;font-variant-position:normal;font-variant-caps:normal;font-variant-numeric:normal;font-variant-alternates:normal;font-variant-east-asian:normal;font-feature-settings:normal;font-variation-settings:normal;text-indent:0;text-decoration-line:none;text-decoration-style:solid;text-decoration-color:#000000;text-transform:none;text-orientation:mixed;white-space:normal;shape-padding:0;shape-margin:0;inline-size:0;isolation:auto;mix-blend-mode:normal;fill:#ffb94a;stroke-width:0.60426"
         id="path7" />
      <path
         shapeRendering="auto"
         d="m 161.82,353.5 c -25.558,25.557 -25.555,67.362 0,92.926 23.958,23.953 62.186,25.455 87.933,4.5034 v 56.222 c 0,36.149 29.565,65.718 65.712,65.718 36.147,0 65.712,-29.566 65.712,-65.718 v -55.737 l 102.2,102.19 c 25.56,25.553 67.357,25.553 92.92,0 25.554,-25.56 25.559,-67.362 0,-92.926 l -60.725,-60.719 60.725,-60.73 c 25.554,-25.559 25.553,-67.357 0,-92.915 -12.537,-12.54 -29.624,-19.493 -47.047,-19.251 -17.424,0.24103 -33.774,7.1493 -45.871,19.251 l -102.2,102.19 v -55.737 h -0.0538 c 10e-4,-0.19082 0,-0.38164 0,-0.57347 0,-2.1573 -0.17274,-3.828 -0.19936,-4.4622 v -0.1858 l -0.0537,-0.19083 c -1.2364,-15.54 -7.2501,-29.281 -19.001,-41.044 -12.41,-12.424 -29.683,-19.498 -47.104,-19.256 -17.422,0.24104 -33.694,7.1297 -45.731,19.167 z m 194.94,-64.235 c 0.0703,1.3302 0.15618,2.427 0.15618,2.9346 0,11.134 -4.3357,22.098 -12.131,29.902 l -70.792,70.791 v -100.12 c 0,-11.523 4.6102,-21.786 12.237,-29.416 7.5342,-7.537 17.808,-11.901 28.807,-12.055 11,-0.15567 21.828,4.2207 29.258,11.657 7.4296,7.436 11.687,16.588 12.465,26.305 z m 202.4,-25.819 c 16.294,16.298 16.294,42.346 0,58.644 l -60.725,60.73 -29.322,-29.327 C 458.649,343.026 444.582,336.196 429.376,334.58 l 71.142,-71.136 c 7.6383,-7.6414 17.741,-12.002 28.748,-12.155 11.006,-0.15065 21.978,4.2337 29.896,12.155 z m -309.41,36.393 v 117.29 l -12.149,12.154 c -16.297,16.294 -42.352,16.294 -58.649,0 -16.294,-16.297 -16.294,-42.352 0,-58.649 z m 107.19,44.376 v 162.93 c 0,23.048 -18.428,41.477 -41.476,41.477 -23.048,0 -41.476,-18.428 -41.476,-41.477 v -79.968 z m 65.34,14.273 c 11.008,-0.15567 21.772,4.2232 29.688,12.143 l 29.328,29.321 -29.322,29.327 c -16.297,16.294 -42.351,16.294 -58.649,0 -16.295,-16.298 -11.969,-46.681 0,-58.649 8.0966,-8.0974 17.946,-11.988 28.954,-12.143 z m 76.151,58.611 60.725,60.714 c 16.295,16.295 16.294,42.352 0,58.649 -16.297,16.293 -42.347,16.294 -58.643,0 l -71.234,-71.229 c 14.597,-1.3719 29.191,-8.1777 39.831,-18.816 z"
         color="#000000"
         color-rendering="auto"
         dominantBaseline="auto"
         fill="#ffffff"
         fill-opacity="0"
         imageRendering="auto"
         solidColor="#000000"
         stop-color="#000000"
         style="font-variant-ligatures:normal;font-variant-position:normal;font-variant-caps:normal;font-variant-numeric:normal;font-variant-alternates:normal;font-variant-east-asian:normal;font-feature-settings:normal;font-variation-settings:normal;text-indent:0;text-decoration-line:none;text-decoration-style:solid;text-decoration-color:#000000;text-transform:none;text-orientation:mixed;white-space:normal;shape-padding:0;shape-margin:0;inline-size:0;isolation:auto;mix-blend-mode:normal;fill:#ffffff;fill-opacity:0"
         id="path8" />
    </svg>
  </g>
</svg>
